<svg width="24" height="24" viewBox="0 0 24 24" fill="none" xmlns="http://www.w3.org/2000/svg">
    <path
        d="M16 21.8H7.99995C4.79995 21.8 2.19995 19.2 2.19995 16V8.00001C2.19995 4.80001 4.79995 2.20001 7.99995 2.20001H16C19.2 2.20001 21.7999 4.80001 21.7999 8.00001V16C21.7999 19.2 19.2 21.8 16 21.8ZM7.99995 3.80001C5.69995 3.80001 3.79995 5.70001 3.79995 8.00001V16C3.79995 18.3 5.69995 20.2 7.99995 20.2H16C18.3 20.2 20.2 18.3 20.2 16V8.00001C20.2 5.70001 18.3 3.80001 16 3.80001H7.99995Z"
        fill="#667085" />
    <path
        d="M7.99995 16.8C7.59995 16.8 7.19995 16.5 7.19995 16V13C7.19995 12.6 7.49995 12.2 7.99995 12.2C8.49995 12.2 8.79995 12.5 8.79995 13V16C8.79995 16.4 8.39995 16.8 7.99995 16.8Z"
        fill="#667085" />
    <path
        d="M12 16.8C11.6 16.8 11.2 16.5 11.2 16V8.00001C11.2 7.60001 11.5 7.20001 12 7.20001C12.5 7.20001 12.8 7.50001 12.8 8.00001V16C12.8 16.4 12.4 16.8 12 16.8Z"
        fill="#667085" />
    <path
        d="M16 16.8C15.6 16.8 15.2 16.5 15.2 16V11C15.2 10.6 15.5 10.2 16 10.2C16.5 10.2 16.8 10.5 16.8 11V16C16.8 16.4 16.4 16.8 16 16.8Z"
        fill="#667085" />
</svg>