<svg width="20" height="21" viewBox="0 0 20 21" fill="none" xmlns="http://www.w3.org/2000/svg">
    <path
        d="M15.8333 16.9352H4.16659C2.91659 16.9352 1.83325 15.9352 1.83325 14.6019V6.35189C1.83325 5.10189 2.83325 4.01855 4.16659 4.01855H15.8333C17.0833 4.01855 18.1666 5.01855 18.1666 6.35189V14.6852C18.1666 15.9352 17.0833 16.9352 15.8333 16.9352ZM4.16659 5.35189C3.58325 5.35189 3.16659 5.76855 3.16659 6.35189V14.6852C3.16659 15.2686 3.66659 15.6852 4.16659 15.6852H15.8333C16.4166 15.6852 16.8333 15.1852 16.8333 14.6852V6.35189C16.8333 5.76855 16.3333 5.35189 15.8333 5.35189H4.16659Z"
        fill="#1466FF" />
    <path
        d="M10.0001 11.1853C9.91672 11.1853 9.75005 11.1853 9.66672 11.1019L5.50005 8.60193C5.25005 8.35193 5.08339 8.0186 5.33339 7.68526C5.50005 7.35193 5.91672 7.2686 6.16672 7.43526L10.0001 9.7686L13.8334 7.43526C14.1667 7.2686 14.5001 7.35193 14.6667 7.68526C14.8334 8.0186 14.75 8.35193 14.4167 8.5186L10.2501 11.0186C10.2501 11.1019 10.0834 11.1853 10.0001 11.1853Z"
        fill="#1466FF" />
</svg>