<svg width="20" height="20" viewBox="0 0 20 20" fill="none" xmlns="http://www.w3.org/2000/svg">
    <path
        d="M15.0001 18.1666H5.00008C3.75008 18.1666 2.66675 17.1666 2.66675 15.8333V7.49996C2.66675 6.24996 3.66675 5.16663 5.00008 5.16663H15.0001C16.2501 5.16663 17.3334 6.16663 17.3334 7.49996V15.8333C17.3334 17.0833 16.2501 18.1666 15.0001 18.1666ZM5.00008 6.49996C4.41675 6.49996 4.00008 6.91663 4.00008 7.49996V15.8333C4.00008 16.4166 4.50008 16.8333 5.00008 16.8333H15.0001C15.5834 16.8333 16.0001 16.3333 16.0001 15.8333V7.49996C16.0001 6.91663 15.5001 6.49996 15.0001 6.49996H5.00008Z"
        fill="#1466FF" />
    <path
        d="M10 13.1666C8.08333 13.1666 6.5 11.5833 6.5 9.66663V8.83329C6.5 8.49996 6.75 8.16663 7.16667 8.16663C7.58333 8.16663 7.83333 8.41663 7.83333 8.83329V9.66663C7.83333 10.9166 8.91667 12 10.1667 12C11.4167 12 12.5 10.9166 12.5 9.66663V8.83329C12.5 8.49996 12.75 8.16663 13.1667 8.16663C13.5833 8.16663 13.8333 8.41663 13.8333 8.83329V9.66663C13.5 11.5 11.9167 13.1666 10 13.1666Z"
        fill="#1466FF" />
    <path
        d="M12.9167 6.5C12.5833 6.5 12.25 6.25 12.25 5.83333V5C12.25 3.75 11.1667 2.66667 9.91667 2.66667C8.66667 2.66667 7.58333 3.75 7.58333 5V5.83333C7.58333 6.16667 7.33333 6.5 6.91667 6.5C6.5 6.5 6.5 6.16667 6.5 5.83333V5C6.5 3.08333 8.08333 1.5 10 1.5C11.9167 1.5 13.5 3.08333 13.5 5V5.83333C13.5 6.16667 13.25 6.5 12.9167 6.5Z"
        fill="#1466FF" />
</svg>