<svg width="20" height="20" viewBox="0 0 20 20" fill="none" xmlns="http://www.w3.org/2000/svg">
    <g clip-path="url(#clip0_21_2744)">
        <path
            d="M6.41667 16.5H4.16667C3.83333 16.5 3.5 16.25 3.5 15.8333V13.5833C3.5 13.25 3.66667 12.8333 3.91667 12.5833L12.5833 4C13.1667 3.41667 14.0833 3.41667 14.6667 4L16.0833 5.41667C16.6667 6 16.6667 6.91667 16.0833 7.5L7.41667 16C7.16667 16.25 6.75 16.5 6.41667 16.5ZM4.83333 15.1667H6.5C6.5 15.1667 6.58333 15.1667 6.66667 15.0833L15.1667 6.58333C15.25 6.5 15.25 6.41667 15.1667 6.33333L13.75 4.91667C13.6667 4.83333 13.5833 4.83333 13.5 4.91667L4.83333 13.4167C4.83333 13.4167 4.75 13.5 4.75 13.5833V15.1667H4.83333Z"
            fill="#475467" />
        <path
            d="M14.0834 9.16668C13.9167 9.16668 13.75 9.08334 13.6667 9.00001L11.0834 6.41668C10.8334 6.16668 10.8334 5.83334 11.0834 5.58334C11.3334 5.33334 11.75 5.33334 12 5.58334L14.5834 8.16668C14.8334 8.41668 14.8334 8.83334 14.5834 9.08334C14.4167 9.16668 14.25 9.16668 14.0834 9.16668Z"
            fill="#475467" />
    </g>
    <defs>
        <clipPath id="clip0_21_2744">
            <rect width="20" height="20" fill="white" />
        </clipPath>
    </defs>
</svg>