<svg width="20" height="20" viewBox="0 0 20 20" fill="none" xmlns="http://www.w3.org/2000/svg">
    <path
        d="M3.49992 18.0833C3.16658 18.0833 2.83325 17.8333 2.83325 17.4167V9.08332C2.83325 8.74999 3.08325 8.41666 3.49992 8.41666C3.91658 8.41666 4.16658 8.74999 4.16658 9.08332V17.4167C4.16658 17.75 3.83325 18.0833 3.49992 18.0833Z"
        fill="#667085" />
    <path
        d="M16.4999 18.0833C16.1666 18.0833 15.8333 17.8333 15.8333 17.4167V9.08332C15.8333 8.74999 16.0833 8.41666 16.4999 8.41666C16.9166 8.41666 17.1666 8.66666 17.1666 9.08332V17.4167C17.0833 17.75 16.8333 18.0833 16.4999 18.0833Z"
        fill="#667085" />
    <path
        d="M11.8333 18.0833C11.5 18.0833 11.1667 17.8333 11.1667 17.4167V13.75C11.1667 13.0833 10.5833 12.5 9.91667 12.5C9.25 12.5 8.66667 13.0833 8.66667 13.75V17.4167C8.66667 17.75 8.41667 18.0833 8 18.0833C7.58333 18.0833 7.5 17.75 7.5 17.4167V13.75C7.5 12.4167 8.58333 11.25 10 11.25C11.4167 11.25 12.5 12.3333 12.5 13.75V17.4167C12.5 17.75 12.1667 18.0833 11.8333 18.0833Z"
        fill="#667085" />
    <path
        d="M18.3333 18.0833H1.66667C1.33333 18.0833 1 17.8333 1 17.4167C1 17 1.25 16.75 1.66667 16.75H18.3333C18.6667 16.75 19 17 19 17.4167C19 17.8333 18.6667 18.0833 18.3333 18.0833Z"
        fill="#667085" />
    <path
        d="M16.3332 9.66667C15.4999 9.66667 14.6666 9.33333 14.1666 8.75C13.6666 9.33333 12.9166 9.66667 11.9999 9.66667C11.1666 9.66667 10.4166 9.33333 9.99989 8.83333C9.49989 9.33333 8.74989 9.66667 7.83322 9.66667C6.99989 9.66667 6.16656 9.33333 5.66656 8.83333C5.16656 9.41667 4.33322 9.66667 3.58322 9.66667C2.66656 9.66667 1.83322 9.25 1.41656 8.5C0.916558 7.83333 0.916558 6.91667 1.24989 6.25L2.66656 3.41667C3.16656 2.5 3.99989 2 4.99989 2H14.9166C15.9166 2 16.7499 2.58333 17.2499 3.41667L18.6666 6.25C18.9999 7 18.9999 7.83333 18.5832 8.5C18.0832 9.25 17.2499 9.66667 16.3332 9.66667ZM14.8332 7.25C14.8332 7.91667 15.5832 8.41667 16.3332 8.41667C16.8332 8.41667 17.2499 8.16667 17.4999 7.83333C17.6666 7.5 17.6666 7.08333 17.4999 6.75L16.0832 3.91667C15.8332 3.5 15.4166 3.16667 14.9166 3.16667H4.99989C4.49989 3.16667 3.99989 3.41667 3.83322 3.91667L2.41656 6.75C2.24989 7.08333 2.24989 7.5 2.41656 7.83333C2.66656 8.25 3.08322 8.41667 3.58322 8.41667C4.08322 8.41667 4.49989 8.25 4.74989 7.91667C4.91656 7.83333 4.99989 7.66667 5.08322 7.41667C5.08322 7.33333 5.08322 7.33333 5.08322 7.25C4.99989 6.91667 5.33322 6.66667 5.66656 6.66667C5.99989 6.66667 6.24989 6.91667 6.33322 7.25C6.33322 7.33333 6.33322 7.33333 6.33322 7.41667C6.41656 8.08333 7.08322 8.5 7.83322 8.5C8.66656 8.5 9.41656 8 9.41656 7.33333C9.33322 6.91667 9.66656 6.66667 9.99989 6.66667C10.3332 6.66667 10.6666 6.91667 10.6666 7.33333C10.6666 8.08333 11.2499 8.5 12.0832 8.5C12.9166 8.5 13.5832 8 13.5832 7.33333C13.4999 6.91667 13.8332 6.66667 14.1666 6.66667C14.4999 6.66667 14.8332 6.91667 14.8332 7.25Z"
        fill="#667085" />
</svg>