<svg width="20" height="20" viewBox="0 0 20 20" fill="none" xmlns="http://www.w3.org/2000/svg">
    <path
        d="M13.3333 6.00001H6.66667C6.33333 6.00001 6 5.75001 6 5.33334V3.50001C6 2.58334 6.75 1.83334 7.66667 1.83334H12.25C13.1667 1.83334 13.9167 2.58334 13.9167 3.50001V5.33334C14 5.75001 13.6667 6.00001 13.3333 6.00001ZM7.33333 4.83334H12.75V3.50001C12.75 3.25001 12.5833 3.08334 12.3333 3.08334H7.66667C7.5 3.16668 7.33333 3.33334 7.33333 3.50001V4.83334Z"
        fill="#B42318" />
    <path
        d="M16.6666 6.00001H3.33329C2.99996 6.00001 2.66663 5.75001 2.66663 5.33334C2.66663 4.91668 2.99996 4.83334 3.33329 4.83334H16.6666C17 4.83334 17.3333 5.08334 17.3333 5.50001C17.3333 5.91668 17 6.00001 16.6666 6.00001Z"
        fill="#B42318" />
    <path
        d="M12.0833 10.4167H7.91667C7.58333 10.4167 7.25 10.1667 7.25 9.74999C7.25 9.33332 7.58333 9.16666 7.91667 9.16666H12.0833C12.4167 9.16666 12.75 9.41666 12.75 9.83332C12.75 10.25 12.4167 10.4167 12.0833 10.4167Z"
        fill="#B42318" />
    <path
        d="M12.0833 13.75H7.91667C7.58333 13.75 7.25 13.5 7.25 13.0833C7.25 12.6667 7.58333 12.5 7.91667 12.5H12.0833C12.4167 12.5 12.75 12.75 12.75 13.1667C12.75 13.5833 12.4167 13.75 12.0833 13.75Z"
        fill="#B42318" />
    <path
        d="M13.0834 18.1667H6.91671C5.75004 18.1667 4.75004 17.25 4.66671 16.0833L3.58337 5.50001C3.58337 5.16668 3.83337 4.83334 4.16671 4.83334C4.50004 4.83334 4.83337 5.08334 4.83337 5.41668L5.91671 16C6.00004 16.5 6.41671 16.9167 6.91671 16.9167H13.0834C13.5834 16.9167 14.0834 16.5 14.0834 16L15.1667 5.41668C15.1667 5.08334 15.5 4.83334 15.8334 4.83334C16.1667 4.83334 16.4167 5.16668 16.4167 5.50001L15.3334 16.0833C15.25 17.25 14.25 18.1667 13.0834 18.1667Z"
        fill="#B42318" />
</svg>