<svg width="396" height="72" viewBox="0 0 396 72" fill="none" xmlns="http://www.w3.org/2000/svg">
    <path
        d="M82.0938 55.7337L75.2674 44.2141H69.0098V55.7337H63.7478V24.1615H76.6185C79.4628 24.1615 81.9516 25.157 83.9427 27.1481C85.9337 29.1391 86.9292 31.5568 86.9292 34.33C86.9292 36.3211 86.3604 38.1699 85.1515 39.8765C83.9427 41.5831 82.4494 42.7208 80.5294 43.503L87.8536 55.7337H82.0938ZM69.0098 29.068V39.6632H76.6185C78.0406 39.6632 79.2495 39.1654 80.245 38.0988C81.2405 37.0322 81.7383 35.8233 81.7383 34.33C81.7383 32.8367 81.2405 31.6279 80.245 30.5613C79.2495 29.4946 78.0406 28.9969 76.6185 28.9969L69.0098 29.068Z"
        fill="#002991" />
    <path
        d="M108.83 33.1919H113.808V55.7334H108.83V52.4624C106.982 55.0223 104.279 56.3022 100.795 56.3022C97.6664 56.3022 94.8932 55.1645 92.6888 52.8179C90.4844 50.4713 89.3467 47.6981 89.3467 44.356C89.3467 41.0139 90.4844 38.1695 92.6888 35.8941C94.8932 33.6186 97.5953 32.4808 100.795 32.4808C104.279 32.4808 106.982 33.7608 108.83 36.2496V33.1919ZM96.3864 49.618C97.7375 50.9691 99.5152 51.6802 101.577 51.6802C103.64 51.6802 105.346 50.9691 106.768 49.618C108.119 48.2669 108.83 46.4892 108.83 44.4271C108.83 42.3649 108.119 40.6583 106.768 39.2362C105.417 37.8851 103.64 37.174 101.577 37.174C99.5152 37.174 97.8086 37.8851 96.3864 39.2362C95.0354 40.5872 94.3243 42.3649 94.3243 44.4271C94.2532 46.5603 94.9643 48.2669 96.3864 49.618Z"
        fill="#002991" />
    <path
        d="M131.016 32.6234C133.647 32.6234 135.781 33.4767 137.416 35.1122C139.052 36.8188 139.834 39.0943 139.834 41.9387V55.8048H134.856V42.3653C134.856 40.6587 134.429 39.3787 133.505 38.4543C132.581 37.601 131.301 37.1033 129.736 37.1033C128.03 37.1033 126.608 37.6721 125.47 38.6677C124.403 39.7343 123.834 41.3698 123.834 43.5742V55.7337H118.857V24.1615H123.834V36.0366C125.399 33.7612 127.745 32.6234 131.016 32.6234Z"
        fill="#002991" />
    <path
        d="M165.006 55.7337H159.104L149.647 45.2808V55.7337H144.669V24.1615H149.647V43.2186L158.606 33.1923H164.651L154.553 44.2852L165.006 55.7337Z"
        fill="#002991" />
    <path
        d="M183.281 33.1919H188.258V55.7334H183.281V52.4624C181.432 55.0223 178.73 56.3022 175.246 56.3022C172.117 56.3022 169.344 55.1645 167.139 52.8179C164.935 50.4713 163.797 47.6981 163.797 44.356C163.797 41.0139 164.935 38.1695 167.139 35.8941C169.344 33.6186 172.046 32.4808 175.246 32.4808C178.73 32.4808 181.432 33.7608 183.281 36.2496V33.1919ZM170.766 49.618C172.117 50.9691 173.895 51.6802 175.957 51.6802C178.019 51.6802 179.725 50.9691 181.148 49.618C182.499 48.2669 183.21 46.4892 183.21 44.4271C183.21 42.3649 182.499 40.6583 181.148 39.2362C179.797 37.8851 178.019 37.174 175.957 37.174C173.895 37.174 172.188 37.8851 170.766 39.2362C169.344 40.5872 168.704 42.3649 168.704 44.4271C168.704 46.5603 169.415 48.2669 170.766 49.618Z"
        fill="#002991" />
    <path
        d="M198.285 36.9605C199.494 34.1162 201.912 32.7651 205.396 32.7651V38.0272C203.476 37.9561 201.84 38.3827 200.418 39.3782C198.996 40.3738 198.285 42.0093 198.285 44.3558V55.7332H193.307V33.1918H198.285V36.9605Z"
        fill="#002991" />
    <path
        d="M240.666 40.7292V42.3647C240.666 46.2756 239.244 49.5466 236.4 52.3199C233.556 55.0931 229.716 56.3731 224.951 56.3731C220.045 56.3731 215.992 54.8087 212.863 51.6088C209.663 48.48 208.099 44.569 208.099 40.0181C208.099 35.4671 209.663 31.5561 212.863 28.4274C216.063 25.2986 220.045 23.6631 224.951 23.6631C227.938 23.6631 230.711 24.3742 233.129 25.7963C235.618 27.2185 237.538 29.1385 238.889 31.4139L236.044 33.0494C234.978 31.1295 233.556 29.5651 231.564 28.4274C229.573 27.2896 227.369 26.7208 224.951 26.7208C220.969 26.7208 217.627 28.0007 215.067 30.5606C212.507 33.1205 211.299 36.3204 211.299 40.0181C211.299 43.7868 212.578 46.9156 215.067 49.4755C217.627 52.0354 220.898 53.3154 224.951 53.3154C228.578 53.3154 231.493 52.4621 233.627 50.6844C235.831 48.9067 237.04 46.6312 237.395 43.7868H224.596V40.8003L240.666 40.7292Z"
        fill="#002991" />
    <path
        d="M264.274 52.8891C261.928 55.1646 259.012 56.3023 255.67 56.3023C252.328 56.3023 249.484 55.1646 247.066 52.8891C244.648 50.6136 243.582 47.7693 243.582 44.4271C243.582 41.085 244.79 38.2407 247.066 35.9652C249.412 33.6897 252.328 32.552 255.67 32.552C259.012 32.552 261.856 33.6897 264.274 35.9652C266.621 38.2407 267.758 41.085 267.758 44.4271C267.758 47.7693 266.621 50.6136 264.274 52.8891ZM249.27 50.8269C250.977 52.5335 253.181 53.4579 255.741 53.4579C258.301 53.4579 260.434 52.6046 262.212 50.8269C263.919 49.1203 264.843 46.9871 264.843 44.4983C264.843 42.0095 263.99 39.8762 262.212 38.1696C260.505 36.463 258.301 35.5386 255.741 35.5386C253.181 35.5386 251.048 36.3919 249.27 38.1696C247.564 39.8762 246.639 42.0095 246.639 44.4983C246.568 46.9871 247.493 49.1203 249.27 50.8269Z"
        fill="#002991" />
    <path
        d="M273.874 39.0226C273.874 40.0182 274.3 40.8715 275.225 41.4403C276.149 42.0092 277.287 42.507 278.567 42.8625C279.918 43.218 281.198 43.5736 282.549 43.9291C283.9 44.2847 284.967 44.9958 285.891 45.9202C286.744 46.9157 287.242 48.1245 287.242 49.6889C287.242 51.6089 286.46 53.1733 284.895 54.3821C283.331 55.5909 281.34 56.2309 278.851 56.2309C276.647 56.2309 274.727 55.7332 273.234 54.8088C271.669 53.8132 270.603 52.6044 269.963 51.04L272.523 49.5467C272.949 50.7556 273.731 51.68 274.869 52.32C276.007 53.031 277.358 53.3866 278.851 53.3866C280.345 53.3866 281.624 53.1021 282.62 52.5333C283.687 51.9644 284.184 51.04 284.184 49.8312C284.184 48.7645 283.758 47.9823 282.833 47.4135C281.909 46.8446 280.842 46.3468 279.491 45.9202C278.14 45.5646 276.86 45.2091 275.509 44.8535C274.158 44.498 273.091 43.7869 272.167 42.8625C271.243 41.9381 270.816 40.6581 270.816 39.1649C270.816 37.316 271.527 35.8227 273.02 34.5428C274.514 33.3339 276.362 32.694 278.638 32.694C280.487 32.694 282.122 33.1206 283.544 33.9028C284.967 34.685 286.033 35.8228 286.673 37.2449L284.184 38.6671C283.331 36.5338 281.482 35.5383 278.638 35.5383C277.287 35.5383 276.149 35.8227 275.225 36.3916C274.371 37.0316 273.874 37.956 273.874 39.0226Z"
        fill="#002991" />
    <path
        d="M303.81 36.0363H297.197V49.6892C297.197 50.898 297.411 51.8224 297.908 52.3202C298.406 52.889 299.117 53.1024 300.113 53.1024C301.108 53.1024 302.317 53.1024 303.81 53.0313V55.6623C300.61 56.16 298.193 55.8756 296.557 54.9512C294.922 54.0268 294.14 52.2491 294.14 49.618V35.9652H289.304V33.1208H294.14V27.7166L297.197 26.8633V33.192H303.81V36.0363Z"
        fill="#002991" />
    <path
        d="M326.352 33.1917H329.41V55.7332H326.352V51.3244C324.219 54.6665 321.09 56.302 317.037 56.302C313.695 56.302 310.993 55.1643 308.646 52.8888C306.3 50.6133 305.162 47.769 305.162 44.498C305.162 41.1559 306.3 38.3827 308.646 36.1072C310.993 33.8317 313.766 32.694 317.037 32.694C321.162 32.694 324.219 34.4006 326.352 37.6716V33.1917ZM310.851 50.8267C312.557 52.5333 314.762 53.4577 317.322 53.4577C319.882 53.4577 322.015 52.6044 323.793 50.8267C325.499 49.1201 326.424 46.9868 326.424 44.498C326.424 42.0092 325.57 39.8759 323.793 38.1693C322.086 36.4627 319.882 35.5383 317.322 35.5383C314.762 35.5383 312.629 36.3916 310.851 38.1693C309.144 39.8759 308.22 42.0092 308.22 44.498C308.22 46.9868 309.073 49.1201 310.851 50.8267Z"
        fill="#002991" />
    <path
        d="M338.014 36.9606C339.436 34.2585 341.854 32.8363 345.267 32.8363V35.7518C343.205 35.7518 341.498 36.3206 340.076 37.6006C338.725 38.8094 338.014 40.7294 338.014 43.2893V55.8044H334.956V33.263H338.014V36.9606Z"
        fill="#002991" />
    <path
        d="M367.098 33.1917H370.155V55.7332H367.098V51.3244C364.965 54.6665 361.836 56.302 357.783 56.302C354.441 56.302 351.738 55.1643 349.392 52.8888C347.045 50.6133 345.907 47.769 345.907 44.498C345.907 41.1559 347.045 38.3827 349.392 36.1072C351.738 33.8317 354.512 32.694 357.783 32.694C361.907 32.694 364.965 34.4006 367.098 37.6716V33.1917ZM351.596 50.8267C353.303 52.5333 355.507 53.4577 358.067 53.4577C360.627 53.4577 362.76 52.6044 364.538 50.8267C366.245 49.1201 367.169 46.9868 367.169 44.498C367.169 42.0092 366.316 39.8759 364.538 38.1693C362.831 36.4627 360.627 35.5383 358.067 35.5383C355.507 35.5383 353.374 36.3916 351.596 38.1693C349.89 39.8759 348.965 42.0092 348.965 44.498C348.965 46.9868 349.818 49.1201 351.596 50.8267Z"
        fill="#002991" />
    <path
        d="M386.438 32.6222C389.283 32.6222 391.416 33.4755 393.051 35.111C394.687 36.8176 395.469 39.022 395.469 41.8663V55.6614H392.411V41.7952C392.411 39.8042 391.842 38.1687 390.776 37.102C389.709 35.9643 388.145 35.3954 386.154 35.3954C383.949 35.3954 382.172 36.1065 380.749 37.4576C379.398 38.8086 378.687 40.9419 378.687 43.7862V55.6614H375.63V33.12H378.687V36.6043C380.465 33.9733 383.096 32.6222 386.438 32.6222Z"
        fill="#002991" />
    <path
        d="M24.2102 47.8398H0.531006V24.1606C0.531006 11.0766 11.1262 0.481445 24.2102 0.481445C37.2942 0.481445 47.8894 11.0766 47.8894 24.1606C47.9605 37.2446 37.2942 47.8398 24.2102 47.8398Z"
        fill="#002991" />
    <path d="M47.9605 71.5188L0.531006 24.1604V71.5188H47.9605Z" fill="#5FCDFF" />
    <path d="M24.2102 47.8396L0.531006 24.1604V47.8396H24.2102Z" fill="#008CFF" />
</svg>