<svg width="720" height="1024" viewBox="0 0 720 1024" fill="none" xmlns="http://www.w3.org/2000/svg">
    <g clip-path="url(#clip0_4_15288)">
        <rect width="1024" height="720" transform="translate(0 1024) rotate(-90)" fill="white" />
        <rect x="-299" y="2161" width="2439" height="2507" rx="648"
            transform="rotate(-90 -299 2161)" fill="#0041CC" />
        <g opacity="0.05" clip-path="url(#clip1_4_15288)">
            <path
                d="M292.873 1168.8L981.25 1168.8L981.25 824.15L638.576 824.15C636.624 824.15 634.604 824.15 632.652 824.285C444.417 827.37 292.873 980.413 292.873 1168.8Z"
                fill="#0050FF" />
            <path
                d="M641.336 1168.73C832.331 1168.73 987.107 1014.48 987.107 824.149L641.336 824.149L641.336 1168.73Z"
                fill="#B3E1FD" />
            <path
                d="M640.959 30.1921L640.959 -68.7468L299.534 -68.7468L299.534 129.093L640.959 129.093L640.959 46.4768C641.228 40.9716 640.959 35.7358 640.959 30.1921Z"
                fill="#D1E9FF" />
            <path
                d="M292.806 -33.6864C292.806 -128.84 215.402 -205.978 119.921 -205.978C24.4387 -205.978 -52.9646 -128.84 -52.9646 -33.6863C-52.9646 61.4678 24.4388 138.605 119.921 138.605C215.402 138.605 292.806 61.4678 292.806 -33.6864Z"
                fill="white" />
            <path
                d="M291.324 474.336L291.324 818.919L637.162 818.919L637.162 474.336L291.324 474.336Z"
                fill="#0041CC" />
            <path
                d="M637.164 129.751L637.164 474.335L978.221 474.335L978.221 129.751L637.164 129.751Z"
                fill="white" />
            <path
                d="M981.25 476.951L292.806 476.951L292.806 476.28L293.008 476.28L293.008 428.798L293.412 425.981C317.918 261.267 459.43 134.513 630.969 132.434C632.45 132.434 633.931 132.434 635.412 132.434C636.893 132.434 638.442 132.434 639.923 132.434C641.741 132.434 643.558 132.434 645.376 132.568C831.726 137.732 981.25 289.971 981.25 476.951Z"
                fill="#B3E1FD" />
        </g>
    </g>
    <defs>
        <clipPath id="clip0_4_15288">
            <rect width="1024" height="720" fill="white" transform="translate(0 1024) rotate(-90)" />
        </clipPath>
        <clipPath id="clip1_4_15288">
            <rect width="1922" height="1078" fill="white"
                transform="translate(-103 1902) rotate(-90)" />
        </clipPath>
    </defs>
</svg>